<?xml version="1.0" standalone="no"?>
<!DOCTYPE svg PUBLIC "-//W3C//DTD SVG 20010904//EN"
 "http://www.w3.org/TR/2001/REC-SVG-20010904/DTD/svg10.dtd">
<svg version="1.0" xmlns="http://www.w3.org/2000/svg"
 width="180.000000pt" height="180.000000pt" viewBox="0 0 180.000000 180.000000"
 preserveAspectRatio="xMidYMid meet">
<metadata>
Created by potrace 1.11, written by Peter Selinger 2001-2013
</metadata>
<g transform="translate(0.000000,180.000000) scale(0.100000,-0.100000)"
fill="#000000" stroke="none">
<path d="M1086 1381 c-3 -5 -19 -7 -36 -6 -16 1 -30 -1 -30 -5 0 -7 -36 -17
-77 -22 -7 -1 -13 -5 -13 -10 0 -4 -8 -8 -18 -8 -10 0 -23 -5 -30 -12 -7 -7
-12 -8 -12 -4 0 5 -15 -3 -32 -16 -18 -13 -41 -27 -50 -31 -10 -3 -18 -11 -18
-17 0 -5 -6 -10 -14 -10 -19 0 -146 -131 -139 -143 3 -5 18 4 34 19 16 15 29
24 29 20 0 -5 9 2 20 15 10 13 19 20 20 16 0 -4 10 1 22 12 11 11 25 18 30 15
4 -3 8 -2 8 3 0 9 95 54 122 57 3 1 10 4 14 9 4 4 18 7 30 7 13 0 25 4 28 8 5
9 153 8 179 -2 27 -10 52 -17 57 -17 8 0 73 -50 95 -73 19 -20 31 -21 180 -20
192 2 185 2 185 14 0 29 -186 171 -212 162 -5 -1 -8 3 -8 8 0 6 -11 10 -24 10
-14 0 -28 5 -31 10 -3 6 -17 7 -30 4 -12 -3 -26 -1 -29 5 -9 13 -242 15 -250
2z"/>
<path d="M914 1218 c-3 -4 -16 -8 -30 -8 -31 0 -148 -55 -177 -83 -12 -12 -39
-33 -59 -47 -20 -13 -33 -27 -28 -30 5 -3 -2 -18 -16 -33 -14 -15 -21 -27 -17
-27 4 0 -4 -10 -18 -23 -14 -12 -24 -28 -22 -34 3 -7 1 -13 -5 -13 -17 0 -34
-76 -28 -131 8 -76 8 -79 18 -79 4 0 8 -6 8 -14 0 -23 89 -106 114 -106 8 0
17 -4 20 -9 4 -5 14 -8 24 -7 9 2 20 -1 23 -7 7 -10 104 -13 129 -3 8 3 24 7
35 9 11 1 25 5 30 8 6 4 24 10 40 14 41 11 37 10 68 25 15 7 27 17 27 21 0 4
11 9 24 13 23 6 142 119 135 129 -2 3 5 14 15 26 11 12 15 21 10 21 -5 0 0 7
10 15 11 8 17 15 14 15 -3 0 0 20 7 44 8 24 11 47 8 49 -3 3 -1 12 3 19 12 19
11 49 -4 80 -7 15 -12 31 -11 35 2 15 -46 83 -58 83 -7 0 -13 4 -13 9 0 5 -12
13 -27 19 -16 6 -37 14 -48 18 -28 10 -195 13 -201 2z m171 -79 c3 -4 11 -6
18 -3 13 5 98 -61 95 -74 -1 -4 2 -15 7 -25 6 -15 4 -50 -7 -99 -5 -21 -18
-36 -18 -20 0 16 -126 16 -136 1 -4 -7 -10 -7 -16 -1 -15 15 -38 3 -38 -19 0
-11 -13 -33 -30 -49 -16 -16 -30 -26 -30 -23 0 4 -5 2 -12 -5 -7 -7 -20 -12
-31 -12 -16 0 -52 -61 -62 -104 -10 -48 -45 -92 -53 -68 -2 7 -21 12 -43 12
-32 0 -48 7 -83 40 -23 22 -43 45 -44 52 -1 7 -4 28 -8 45 -3 18 -3 41 1 50 5
10 7 23 6 30 -1 6 3 14 9 18 5 3 10 -2 10 -13 0 -19 18 -22 54 -7 12 5 21 3
27 -6 5 -8 9 -9 9 -3 0 7 6 12 13 11 63 -2 78 3 83 32 5 22 18 35 53 54 25 13
51 23 58 20 11 -4 29 33 25 50 -1 4 2 7 8 7 6 0 10 11 10 25 0 14 5 25 11 25
5 0 8 4 4 9 -3 5 -1 12 5 16 5 3 10 15 10 25 0 12 8 20 23 22 29 4 66 -2 72
-13z m180 -119 c3 -5 1 -10 -4 -10 -6 0 -11 5 -11 10 0 6 2 10 4 10 3 0 8 -4
11 -10z"/>
<path d="M894 936 c-26 -14 -54 -42 -54 -54 0 -5 9 -17 19 -26 18 -16 22 -16
49 -2 36 19 48 47 30 75 -14 23 -15 24 -44 7z"/>
<path d="M1131 670 c-24 -22 -64 -50 -90 -62 -25 -13 -49 -27 -52 -31 -3 -5
-10 -9 -15 -9 -5 0 -20 -5 -34 -11 -14 -6 -30 -9 -37 -8 -6 1 -14 -3 -18 -9
-3 -5 -17 -10 -30 -10 -13 0 -26 -4 -29 -8 -6 -10 -153 -8 -181 2 -67 25 -100
43 -128 71 -28 28 -39 32 -97 34 -36 1 -67 3 -70 3 -3 0 -9 0 -15 -1 -5 -1
-52 -2 -102 -1 -51 1 -93 -2 -93 -5 0 -4 12 -23 26 -43 31 -42 125 -106 193
-130 25 -10 48 -20 51 -24 3 -4 18 -5 33 -3 15 3 27 1 27 -5 0 -6 47 -10 125
-10 69 0 125 4 125 9 0 4 8 8 18 8 27 -1 96 15 108 25 7 5 16 8 20 6 5 -1 33
10 61 25 29 15 55 27 59 26 3 0 14 9 24 21 10 12 21 20 24 18 3 -2 19 9 35 25
16 15 32 27 36 27 14 0 91 86 87 98 -6 18 -13 15 -61 -28z"/>
</g>
</svg>
